<?xml version="1.0" encoding="UTF-8"?>
<svg width="198px" height="58px" viewBox="0 0 198 58" version="1.1" xmlns="http://www.w3.org/2000/svg" xmlns:xlink="http://www.w3.org/1999/xlink">
    <title>logo/logo-color</title>
    <defs>
        <polygon id="path-1" points="0.7381 0.1208 5.487 0.1208 5.487 4.8788 0.7381 4.8788"></polygon>
        <polygon id="path-3" points="0.6665 0.271 19.8155 0.271 19.8155 31.8019 0.6665 31.8019"></polygon>
        <polygon id="path-5" points="0.7925 0.5612 7.7275 0.5612 7.7275 14 0.7925 14"></polygon>
        <polygon id="path-7" points="0.8085 0.5612 7.7455 0.5612 7.7455 14 0.8085 14"></polygon>
    </defs>
    <g id="logo/logo-color" stroke="none" stroke-width="1" fill="none" fill-rule="evenodd">
        <g id="Group-63">
            <g id="Group-3" transform="translate(192.000000, 1.729300)">
                <mask id="mask-2" fill="white">
                    <use xlink:href="#path-1"></use>
                </mask>
                <g id="Clip-2"></g>
                <path d="M3.0621,1.1808 C3.3861,1.1808 3.6231,1.2118 3.7751,1.2748 C4.0441,1.3868 4.1801,1.6078 4.1801,1.9348 C4.1801,2.1678 4.0941,2.3398 3.9241,2.4508 C3.8331,2.5078 3.7071,2.5508 3.5441,2.5768 C3.7491,2.6088 3.9001,2.6938 3.9951,2.8328 C4.0901,2.9708 4.1371,3.1058 4.1371,3.2368 L4.1371,3.4278 C4.1371,3.4888 4.1391,3.5528 4.1441,3.6218 C4.1471,3.6918 4.1561,3.7378 4.1661,3.7578 L4.1821,3.7908 L3.7511,3.7908 C3.7491,3.7828 3.7491,3.7738 3.7451,3.7648 C3.7431,3.7558 3.7411,3.7468 3.7391,3.7348 L3.7301,3.6518 L3.7301,3.4448 C3.7301,3.1418 3.6471,2.9428 3.4841,2.8448 C3.3861,2.7888 3.2151,2.7608 2.9721,2.7608 L2.6091,2.7608 L2.6091,3.7908 L2.1501,3.7908 L2.1501,1.1808 L3.0621,1.1808 Z M3.5561,1.5918 C3.4411,1.5268 3.2551,1.4948 3.0001,1.4948 L2.6091,1.4948 L2.6091,2.4408 L3.0231,2.4408 C3.2181,2.4408 3.3641,2.4208 3.4601,2.3828 C3.6401,2.3108 3.7301,2.1748 3.7301,1.9738 C3.7301,1.7838 3.6701,1.6568 3.5561,1.5918 L3.5561,1.5918 Z M4.7911,4.1788 C4.3281,4.6458 3.7671,4.8788 3.1081,4.8788 C2.4491,4.8788 1.8881,4.6458 1.4271,4.1788 C0.9671,3.7158 0.7381,3.1528 0.7381,2.4918 C0.7381,1.8378 0.9691,1.2788 1.4341,0.8138 C1.8951,0.3528 2.4531,0.1208 3.1081,0.1208 C3.7671,0.1208 4.3281,0.3528 4.7911,0.8138 C5.2561,1.2768 5.4871,1.8358 5.4871,2.4918 C5.4871,3.1508 5.2561,3.7128 4.7911,4.1788 L4.7911,4.1788 Z M1.6641,1.0448 C1.2671,1.4438 1.0671,1.9268 1.0671,2.4918 C1.0671,3.0628 1.2651,3.5478 1.6611,3.9498 C2.0581,4.3508 2.5411,4.5518 3.1081,4.5518 C3.6751,4.5518 4.1581,4.3508 4.5551,3.9498 C4.9521,3.5478 5.1511,3.0628 5.1511,2.4918 C5.1511,1.9268 4.9521,1.4438 4.5551,1.0448 C4.1561,0.6438 3.6741,0.4428 3.1081,0.4428 C2.5451,0.4428 2.0621,0.6438 1.6641,1.0448 L1.6641,1.0448 Z" id="Fill-1" fill="#0B4D8B" mask="url(#mask-2)"></path>
            </g>
            <path d="M34.4371,26.6196 C34.4371,36.1296 26.7281,43.8396 17.2181,43.8396 C7.7091,43.8396 0.0001,36.1296 0.0001,26.6196 L0.0001,4.0406 L17.6381,4.0406 L14.0111,9.5036 L17.6761,9.5036 L17.7001,33.4096 L24.9841,33.4096 L24.9621,4.0406 L34.4371,4.0406 L34.4371,26.6196 Z" id="Fill-4" fill="#EF3825"></path>
            <path d="M38.4928,32.081 C39.0748,32.039 39.7058,31.957 40.3208,31.957 C40.8948,31.957 41.4538,32.039 42.1008,32.081 L44.8278,18.057 L51.1828,18.057 C52.4128,18.057 53.5698,18.221 54.7918,18.262 C54.8388,17.812 54.8288,17.443 54.8928,17.114 C54.9638,16.745 55.1178,16.377 55.2228,16.048 C53.9848,16.09 52.7628,16.253 51.5338,16.253 L45.1778,16.253 L47.1788,5.962 L50.3358,5.962 L54.4208,6.044 C55.6338,6.125 56.8408,6.249 58.0228,6.494 C58.0618,6.085 58.0588,5.674 58.1398,5.264 C58.2188,4.854 58.3728,4.486 58.5018,4.035 L43.9448,4.035 L38.4928,32.081 Z" id="Fill-6" fill="#0B4D8B"></path>
            <path d="M63.3893,5.4692 C63.6133,4.3212 62.8113,3.3782 61.7043,3.3782 C60.5573,3.3782 59.4303,4.3212 59.2073,5.4692 C58.9833,6.6172 59.7433,7.5602 60.8913,7.5602 C61.9983,7.5602 63.1653,6.6172 63.3893,5.4692 L63.3893,5.4692 Z M61.5743,12.4812 C60.9513,12.5212 60.4433,12.6032 59.9113,12.6032 C59.3363,12.6032 58.8203,12.5212 58.2953,12.4812 L54.4843,32.0812 C55.0253,32.0382 55.5743,31.9562 56.1483,31.9562 C56.6813,31.9562 57.1563,32.0382 57.7643,32.0812 L61.5743,12.4812 Z" id="Fill-8" fill="#0B4D8B"></path>
            <path d="M59.3087,32.081 C59.8487,32.039 60.3977,31.957 60.9727,31.957 C61.5057,31.957 61.9817,32.039 62.5877,32.081 L64.6527,21.46 C65.0837,19.247 65.4287,17.894 67.1827,16.253 C67.9337,15.556 69.1047,15.228 70.0067,15.228 C70.7037,15.228 71.2217,15.719 71.8057,15.885 L73.0497,12.44 C72.7127,12.276 72.3937,12.235 71.8177,12.235 C69.7677,12.235 67.6697,13.957 65.9027,16.09 L65.6017,16.582 L66.3997,12.482 C65.7757,12.522 65.2687,12.603 64.7347,12.603 C64.1607,12.603 63.6447,12.522 63.1187,12.482 L59.3087,32.081 Z" id="Fill-10" fill="#0B4D8B"></path>
            <path d="M69.7858,28.1035 C69.4228,29.1265 68.8628,30.1125 68.3438,31.0955 C69.6108,31.9575 71.5328,32.4095 73.2128,32.4095 C76.8208,32.4095 81.1648,30.3185 82.0168,25.9295 C83.2928,19.3695 73.0728,22.1575 74.0938,16.9085 C74.5238,14.6955 76.4368,13.5055 78.4868,13.5055 C80.0048,13.5055 81.1768,14.8595 81.4468,16.2125 L81.8148,16.2125 C82.2518,15.2285 82.7718,14.2445 83.3648,13.3005 C82.7148,12.8505 81.0708,12.2345 78.9388,12.2345 C75.2488,12.2345 71.8408,14.3665 71.0768,18.3035 C69.6808,25.4785 80.0588,21.8695 78.9828,27.4055 C78.5608,29.5795 76.2488,31.1355 74.2388,31.1355 C72.3118,31.1355 70.7878,29.7025 70.1138,28.1035 L69.7858,28.1035 Z" id="Fill-12" fill="#0B4D8B"></path>
            <path d="M86.6368,8.4213 L85.8478,12.4803 L83.3058,12.4803 C83.3248,13.0143 83.2298,13.5063 83.0038,14.0383 L85.5458,14.0383 L83.2248,25.9703 C82.0488,30.9743 83.5738,32.4083 86.6898,32.4083 C87.8778,32.4083 89.0898,32.0803 90.2768,31.6703 L90.4688,30.6863 C89.8298,30.8073 89.1818,30.9743 88.5678,30.9743 C85.1638,30.9743 86.3388,26.8323 86.8258,24.3313 L88.8258,14.0383 L93.1708,14.0383 C93.1288,13.6283 93.2408,13.0543 93.4748,12.4803 L89.1288,12.4803 L90.1648,7.1493 L86.6368,8.4213 Z" id="Fill-14" fill="#0B4D8B"></path>
            <path d="M94.1437,20.7631 C94.1437,22.4031 94.3497,24.2081 94.7997,25.8061 C96.3167,31.1351 101.6877,32.6941 106.6497,32.6941 C109.3557,32.6941 112.1847,32.1211 114.3997,30.5221 C118.6627,27.5701 118.6227,23.3061 118.7457,18.6301 L118.7457,4.0341 C118.2127,4.1161 117.6377,4.1571 117.1047,4.1571 C116.5727,4.1571 115.9977,4.1161 115.4647,4.0341 L115.4647,16.4581 C115.4647,18.4661 115.4647,23.1401 114.7267,24.9451 C113.2917,28.5131 111.2417,29.9081 107.4277,29.9081 C105.6247,29.9081 104.0677,29.3731 102.7537,28.1431 C101.2777,26.7081 100.9507,25.4371 100.5807,23.4281 C100.2127,21.2961 100.2937,17.9331 100.2937,15.6781 L100.2937,4.0341 C99.2687,4.1161 98.2437,4.2391 97.2197,4.2391 C96.1937,4.2391 95.1687,4.1161 94.1437,4.0341 L94.1437,20.7631 Z" id="Fill-16" fill="#0B4D8B"></path>
            <path d="M120.1256,32.1611 C121.0696,32.0811 122.0126,31.9571 122.9546,31.9571 C123.8976,31.9571 124.8416,32.0811 125.7846,32.1611 L125.7846,22.7311 C125.7846,20.1491 125.7846,15.3501 129.3516,15.3501 C132.2216,15.3501 132.7146,18.1391 132.7146,21.9531 L132.7146,32.1611 C133.6576,32.0811 134.6006,31.9571 135.5426,31.9571 C136.4856,31.9571 137.4306,32.0811 138.3706,32.1611 L138.3706,20.1491 C138.3706,15.2271 137.0606,11.9071 131.8946,11.9071 C129.3516,11.9071 127.2206,13.3831 125.5816,15.3101 L125.5816,12.2751 C124.6766,12.3571 123.7746,12.4811 122.8726,12.4811 C121.9296,12.4811 121.0286,12.3571 120.1256,12.2751 L120.1256,32.1611 Z" id="Fill-18" fill="#0B4D8B"></path>
            <path d="M139.3507,4.7719 C139.3507,6.4939 140.7857,8.0109 142.5487,8.0109 C144.3117,8.0109 145.8277,6.5349 145.8277,4.7719 C145.8277,3.0099 144.3117,1.5329 142.5487,1.5329 C140.7857,1.5329 139.3507,3.0499 139.3507,4.7719 L139.3507,4.7719 Z M139.7607,32.1609 C140.7027,32.0809 141.6457,31.9569 142.5897,31.9569 C143.5327,31.9569 144.4737,32.0809 145.4177,32.1609 L145.4177,12.2749 C144.4737,12.3569 143.5327,12.4809 142.5897,12.4809 C141.6457,12.4809 140.7027,12.3569 139.7607,12.2749 L139.7607,32.1609 Z" id="Fill-20" fill="#0B4D8B"></path>
            <path d="M152.7359,14.8999 L156.2209,14.8999 C156.0979,13.9569 156.0979,13.2189 156.2209,12.2749 L152.7359,12.2749 L152.7359,5.1009 C150.7669,6.0439 148.9229,6.9049 147.0779,7.6419 L147.0779,12.2749 L144.2909,12.2749 C144.4129,13.2189 144.4129,13.9569 144.2909,14.8999 L147.0779,14.8999 L147.0779,25.8889 C147.0779,29.7029 148.0209,32.5309 152.2849,32.5309 C153.5559,32.5309 155.0329,32.1609 156.5489,31.5869 L156.5489,29.9889 C152.8999,30.9319 152.7359,29.4149 152.7359,26.5849 L152.7359,14.8999 Z" id="Fill-22" fill="#0B4D8B"></path>
            <path d="M171.9942,22.2397 C172.4452,16.3767 170.0262,11.9077 163.5882,11.9077 C157.6442,11.9077 154.2002,16.0077 154.2002,21.7477 C154.2002,28.4317 157.6852,32.5307 164.4912,32.5307 C166.5002,32.5307 168.7152,31.8337 170.3532,30.6857 L171.2562,28.3887 L170.7632,28.0207 C169.4932,29.0867 167.6482,29.8667 165.9672,29.8667 C161.6212,29.8667 160.1462,26.4627 160.2682,22.2397 L171.9942,22.2397 Z M160.2682,20.2727 C160.3502,18.0987 160.6372,13.7517 163.6292,13.7517 C166.0892,13.7517 166.3362,18.0987 166.3362,20.2727 L160.2682,20.2727 Z" id="Fill-24" fill="#0B4D8B"></path>
            <g id="Group-28" transform="translate(171.000000, 0.729300)">
                <mask id="mask-4" fill="white">
                    <use xlink:href="#path-3"></use>
                </mask>
                <g id="Clip-27"></g>
                <path d="M10.6715,13.8429 C13.9515,13.8429 14.3195,18.8039 14.3195,21.1829 C14.3195,23.7649 13.8685,29.1379 10.3435,29.1379 C7.0225,29.1379 6.7345,24.0129 6.7345,21.6329 C6.7345,19.0499 7.1455,13.8429 10.6715,13.8429 L10.6715,13.8429 Z M19.8155,0.2709 C18.8715,0.3529 17.9275,0.4759 16.9855,0.4759 C16.0425,0.4759 15.0995,0.3529 14.1565,0.2709 L14.1565,14.1299 C12.9665,11.9989 10.9995,11.1779 8.5805,11.1779 C3.1685,11.1779 0.6665,16.3019 0.6665,21.5109 C0.6665,26.7999 2.6765,31.8019 8.7445,31.8019 C11.4515,31.8019 13.5005,30.2439 14.3615,27.8249 L14.3615,31.4319 C15.2645,31.3509 16.1655,31.2279 17.1085,31.2279 C18.0105,31.2279 18.9125,31.3509 19.8155,31.4319 L19.8155,0.2709 Z" id="Fill-26" fill="#0B4D8B" mask="url(#mask-4)"></path>
            </g>
            <g id="Group-31" transform="translate(37.000000, 43.729300)">
                <mask id="mask-6" fill="white">
                    <use xlink:href="#path-5"></use>
                </mask>
                <g id="Clip-30"></g>
                <path d="M4.1515,12.4372 C5.2355,12.4372 6.1025,11.5042 6.1025,10.3152 C6.1025,9.2742 5.4505,8.7292 4.2585,8.0382 L3.5015,7.6042 C2.0935,6.8032 0.7925,5.8712 0.7925,3.9202 C0.7925,2.0342 2.5705,0.5612 4.4775,0.5612 C5.6705,0.5612 6.4935,0.9722 7.1215,1.5792 L7.1215,3.7462 L5.5185,3.7462 L5.5185,2.3802 C5.1715,2.2062 4.7815,2.0762 4.3685,2.0762 C3.3505,2.0762 2.4175,2.8362 2.4175,3.9202 C2.4175,4.8942 3.1775,5.4582 4.2585,6.0852 L5.0185,6.5202 C6.3195,7.2772 7.7275,8.2532 7.7275,10.2042 C7.7275,12.2622 6.1025,14.0002 3.9355,14.0002 C2.4175,14.0002 1.3795,13.2402 0.8155,12.6122 L0.8155,10.3792 L2.4175,10.3792 L2.4175,11.7662 C2.9155,12.2202 3.5245,12.4372 4.1515,12.4372" id="Fill-29" fill="#7CAFCD" mask="url(#mask-6)"></path>
            </g>
            <path d="M49.9654,55.9057 L49.9654,57.5097 L46.7584,57.5097 L46.7584,55.9057 L47.5604,55.9057 L47.5604,46.1107 L46.7584,46.1107 L46.7584,44.5057 L50.4204,44.5057 C52.9134,44.5057 55.1034,46.3497 55.1034,48.8417 C55.1034,51.3347 52.9134,53.1747 50.4204,53.1747 L49.1634,53.1747 L49.1634,55.9057 L49.9654,55.9057 Z M49.1634,51.5727 L50.4204,51.5727 C52.0034,51.5727 53.4544,50.4247 53.4544,48.8417 C53.4544,47.2597 52.0034,46.1107 50.4204,46.1107 L49.1634,46.1107 L49.1634,51.5727 Z" id="Fill-32" fill="#7CAFCD"></path>
            <polygon id="Fill-34" fill="#7CAFCD" points="56.4825 44.5063 56.4825 46.1103 57.2855 46.1103 57.2855 55.9053 56.4825 55.9053 56.4825 57.5093 63.4415 57.5093 63.4415 55.9053 58.8875 55.9053 58.8875 51.4853 62.5735 51.4853 62.5735 49.8793 58.8875 49.8793 58.8875 46.1103 63.2235 46.1103 63.2235 44.5063"></polygon>
            <polygon id="Fill-36" fill="#7CAFCD" points="73.1647 44.5058 73.1647 46.1098 73.9657 46.1098 73.9657 54.2598 67.9857 44.5058 66.3797 44.5058 66.3797 55.9048 65.5767 55.9048 65.5767 57.5108 68.7867 57.5108 68.7867 55.9048 67.9857 55.9048 67.9857 47.7568 73.9657 57.5108 75.5697 57.5108 75.5697 46.1098 76.3707 46.1098 76.3707 44.5058"></polygon>
            <path d="M78.1402,55.9057 L78.9392,55.9057 L78.9392,46.1107 L78.1402,46.1107 L78.1402,44.5067 L82.5622,44.5067 C85.7922,44.5067 87.9132,47.5617 88.0012,50.7907 C88.1092,54.1517 85.9202,57.5097 82.5622,57.5097 L78.1402,57.5097 L78.1402,55.9057 Z M80.5462,55.9057 L82.5622,55.9057 C85.0322,55.9057 86.4412,53.2627 86.3542,50.7907 C86.2672,48.4517 84.9042,46.1107 82.5622,46.1107 L80.5462,46.1107 L80.5462,55.9057 Z" id="Fill-38" fill="#7CAFCD"></path>
            <polygon id="Fill-40" fill="#7CAFCD" points="94.857 44.5063 94.857 46.1103 95.662 46.1103 95.662 55.9053 94.857 55.9053 94.857 57.5093 101.598 57.5093 101.598 55.9053 97.264 55.9053 97.264 46.1103 98.065 46.1103 98.065 44.5063"></polygon>
            <polygon id="Fill-42" fill="#7CAFCD" points="103.4127 44.5063 103.4127 46.1103 104.2147 46.1103 104.2147 55.9053 103.4127 55.9053 103.4127 57.5093 106.6647 57.5093 106.6647 55.9053 105.8607 55.9053 105.8607 46.1103 106.6647 46.1103 106.6647 44.5063"></polygon>
            <polygon id="Fill-44" fill="#7CAFCD" points="108.8483 44.5063 108.8483 46.1103 109.6533 46.1103 109.6533 55.9053 108.8483 55.9053 108.8483 57.5093 112.0563 57.5093 112.0563 55.9053 111.2543 55.9053 111.2543 51.7033 114.9403 51.7033 114.9403 50.0983 111.2543 50.0983 111.2543 46.1103 115.1553 46.1103 115.1553 44.5063"></polygon>
            <polygon id="Fill-46" fill="#7CAFCD" points="117.0128 44.5063 117.0128 46.1103 117.8148 46.1103 117.8148 55.9053 117.0128 55.9053 117.0128 57.5093 123.9688 57.5093 123.9688 55.9053 119.4198 55.9053 119.4198 51.4853 123.1008 51.4853 123.1008 49.8793 119.4198 49.8793 119.4198 46.1103 123.7548 46.1103 123.7548 44.5063"></polygon>
            <polygon id="Fill-48" fill="#7CAFCD" points="141.1026 54.3896 138.6756 44.5056 137.2856 44.5056 134.8596 54.3896 131.9986 44.2906 130.5046 44.6576 134.1676 57.5106 135.5516 57.5106 137.9796 48.2776 140.4076 57.5106 141.7966 57.5106 145.4566 44.6576 143.9636 44.2906"></polygon>
            <polygon id="Fill-50" fill="#7CAFCD" points="147.2223 44.5063 147.2223 46.1103 148.0233 46.1103 148.0233 55.9053 147.2223 55.9053 147.2223 57.5093 150.4743 57.5093 150.4743 55.9053 149.6723 55.9053 149.6723 46.1103 150.4743 46.1103 150.4743 44.5063"></polygon>
            <g id="Group-54" transform="translate(152.000000, 43.729300)">
                <mask id="mask-8" fill="white">
                    <use xlink:href="#path-7"></use>
                </mask>
                <g id="Clip-53"></g>
                <path d="M4.1695,12.4372 C5.2545,12.4372 6.1185,11.5042 6.1185,10.3152 C6.1185,9.2742 5.4705,8.7292 4.2765,8.0382 L3.5175,7.6042 C2.1115,6.8032 0.8085,5.8712 0.8085,3.9202 C0.8085,2.0342 2.5885,0.5612 4.4955,0.5612 C5.6865,0.5612 6.5105,0.9722 7.1395,1.5792 L7.1395,3.7462 L5.5365,3.7462 L5.5365,2.3802 C5.1895,2.2062 4.7975,2.0762 4.3845,2.0762 C3.3665,2.0762 2.4375,2.8362 2.4375,3.9202 C2.4375,4.8942 3.1925,5.4582 4.2765,6.0852 L5.0385,6.5202 C6.3375,7.2772 7.7455,8.2532 7.7455,10.2042 C7.7455,12.2622 6.1185,14.0002 3.9525,14.0002 C2.4375,14.0002 1.3965,13.2402 0.8315,12.6122 L0.8315,10.3792 L2.4375,10.3792 L2.4375,11.7662 C2.9345,12.2202 3.5425,12.4372 4.1695,12.4372" id="Fill-52" fill="#7CAFCD" mask="url(#mask-8)"></path>
            </g>
            <polygon id="Fill-55" fill="#7CAFCD" points="161.7555 44.5063 161.7555 46.1103 162.5575 46.1103 162.5575 55.9053 161.7555 55.9053 161.7555 57.5093 168.7105 57.5093 168.7105 55.9053 164.1625 55.9053 164.1625 51.4853 167.8455 51.4853 167.8455 49.8793 164.1625 49.8793 164.1625 46.1103 168.4955 46.1103 168.4955 44.5063"></polygon>
            <polygon id="Fill-57" fill="#7CAFCD" points="170.6329 44.5063 170.6329 46.1103 171.4349 46.1103 171.4349 55.9053 170.6329 55.9053 170.6329 57.5093 177.3739 57.5093 177.3739 55.9053 173.0389 55.9053 173.0389 46.1103 173.8429 46.1103 173.8429 44.5063"></polygon>
            <polygon id="Fill-59" fill="#7CAFCD" points="182.4566 50.7695 178.8596 44.2905 177.3196 45.0685 181.6346 52.4175 181.6346 55.9055 180.8316 55.9055 180.8316 57.5095 184.0846 57.5095 184.0846 55.9055 183.2806 55.9055 183.2806 52.4175 187.5946 45.0685 186.0546 44.2905"></polygon>
            <path d="M193.8477,46.7241 C193.8477,48.0701 192.7577,49.1571 191.4127,49.1571 C190.0687,49.1571 188.9777,48.0701 188.9777,46.7241 C188.9777,45.3801 190.0687,44.2911 191.4127,44.2911 C192.7577,44.2911 193.8477,45.3801 193.8477,46.7241 L193.8477,46.7241 Z M191.4127,48.6501 C192.4707,48.6501 193.3407,47.7811 193.3407,46.7241 C193.3407,45.6661 192.4707,44.7971 191.4127,44.7971 C190.3567,44.7971 189.4887,45.6661 189.4887,46.7241 C189.4887,47.7811 190.3567,48.6501 191.4127,48.6501 L191.4127,48.6501 Z M190.5277,47.4711 L190.7487,47.4711 L190.7487,45.8971 L190.5277,45.8971 L190.5277,45.4541 L191.3797,45.4541 C191.8577,45.4541 192.2977,45.7891 192.2907,46.2651 C192.2827,46.5841 192.1187,46.8221 191.8317,46.9551 L192.4867,47.7411 L192.0677,47.9771 L191.3557,47.0681 L191.2337,47.0681 L191.2337,47.9121 L190.5277,47.9121 L190.5277,47.4711 Z M191.3797,46.5841 C191.5847,46.5841 191.7987,46.4691 191.7987,46.2651 C191.7987,46.0591 191.6507,45.9381 191.3797,45.9381 L191.2337,45.9381 L191.2337,46.5841 L191.3797,46.5841 Z" id="Fill-61" fill="#7CAFCD"></path>
        </g>
    </g>
</svg>